<svg width="338" height="130" viewBox="0 0 338 130" fill="none" xmlns="http://www.w3.org/2000/svg">
<path d="M62.5019 120.148C62.5019 120.224 62.4829 120.294 62.4449 120.357C62.4069 120.42 62.3436 120.452 62.2549 120.452H61.0769V124.518C60.1902 124.822 59.3099 125.158 58.4359 125.525C58.0179 125.702 57.5746 125.816 57.1059 125.867C56.6499 125.918 56.2002 125.943 55.7569 125.943C55.3769 125.943 54.9525 125.899 54.4839 125.81C54.0152 125.721 53.5592 125.595 53.1159 125.43C52.6852 125.265 52.3052 125.075 51.9759 124.86C51.0132 124.214 50.2975 123.378 49.8289 122.352C49.3729 121.326 49.1449 120.237 49.1449 119.084C49.1449 118.109 49.2969 117.19 49.6009 116.329C49.9175 115.468 50.3672 114.708 50.9499 114.049C51.5325 113.39 52.2292 112.877 53.0399 112.51C53.8632 112.13 54.7815 111.94 55.7949 111.94C56.5422 111.94 57.2579 112.041 57.9419 112.244C58.0559 112.282 58.2395 112.339 58.4929 112.415C58.7462 112.491 58.9995 112.567 59.2529 112.643C59.5062 112.706 59.6772 112.738 59.7659 112.738C60.0319 112.738 60.2156 112.706 60.3169 112.643C60.4182 112.567 60.4942 112.485 60.5449 112.396C60.6082 112.307 60.6969 112.238 60.8109 112.187H60.9629C61.0642 112.187 61.1212 112.244 61.1339 112.358C61.1592 112.485 61.1655 112.618 61.1529 112.757C61.1529 112.896 61.1529 113.036 61.1529 113.175C61.1529 113.568 61.1592 113.96 61.1719 114.353C61.1972 114.746 61.2099 115.145 61.2099 115.55C61.2099 115.702 61.2036 115.879 61.1909 116.082C61.1909 116.285 61.0769 116.386 60.8489 116.386C60.7729 116.386 60.7032 116.38 60.6399 116.367C60.5892 116.342 60.5385 116.297 60.4879 116.234C60.4752 116.209 60.4435 116.139 60.3929 116.025C60.3422 115.898 60.2915 115.772 60.2409 115.645C60.1902 115.506 60.1522 115.411 60.1269 115.36C59.7849 114.587 59.2845 113.941 58.6259 113.422C58.2839 113.143 57.8469 112.922 57.3149 112.757C56.7955 112.592 56.3142 112.51 55.8709 112.51C55.0222 112.51 54.3002 112.719 53.7049 113.137C53.1095 113.542 52.6282 114.074 52.2609 114.733C51.8935 115.392 51.6275 116.101 51.4629 116.861C51.2982 117.621 51.2159 118.356 51.2159 119.065C51.2159 119.812 51.3045 120.547 51.4819 121.269C51.6592 121.991 51.9315 122.643 52.2989 123.226C52.6789 123.809 53.1729 124.277 53.7809 124.632C54.3889 124.974 55.1172 125.145 55.9659 125.145C56.2192 125.145 56.5232 125.12 56.8779 125.069C57.2325 125.018 57.5872 124.93 57.9419 124.803C58.2965 124.676 58.5879 124.505 58.8159 124.29C59.0565 124.075 59.1769 123.802 59.1769 123.473V120.965C59.1769 120.762 59.0755 120.636 58.8729 120.585C58.6829 120.522 58.5182 120.49 58.3789 120.49C58.1889 120.49 57.9989 120.503 57.8089 120.528C57.6189 120.541 57.4289 120.547 57.2389 120.547C57.1375 120.547 57.0679 120.515 57.0299 120.452C57.0045 120.389 56.9919 120.313 56.9919 120.224C56.9919 120.148 57.0045 120.078 57.0299 120.015C57.0552 119.939 57.1185 119.901 57.2199 119.901C57.4226 119.901 57.6189 119.907 57.8089 119.92C57.9989 119.92 58.1952 119.92 58.3979 119.92H59.7469C59.9622 119.92 60.1776 119.92 60.3929 119.92C60.6082 119.92 60.8236 119.914 61.0389 119.901C61.2542 119.901 61.4632 119.895 61.6659 119.882C61.8685 119.857 62.0712 119.844 62.2739 119.844C62.3499 119.844 62.4069 119.882 62.4449 119.958C62.4829 120.021 62.5019 120.085 62.5019 120.148ZM69.7266 123.777C69.676 123.207 69.6443 122.637 69.6316 122.067C69.6316 121.484 69.6253 120.902 69.6126 120.319H69.3466C68.954 120.319 68.517 120.382 68.0356 120.509C67.567 120.623 67.1173 120.8 66.6866 121.041C66.256 121.282 65.9013 121.586 65.6226 121.953C65.3566 122.308 65.2236 122.719 65.2236 123.188C65.2236 123.796 65.3946 124.258 65.7366 124.575C66.0786 124.879 66.541 125.031 67.1236 125.031C67.4023 125.031 67.7063 124.968 68.0356 124.841C68.365 124.702 68.6816 124.537 68.9856 124.347C69.2896 124.157 69.5366 123.967 69.7266 123.777ZM73.0516 124.993C73.0516 125.044 73.0453 125.082 73.0326 125.107C72.906 125.386 72.6906 125.601 72.3866 125.753C72.0953 125.892 71.804 125.962 71.5126 125.962C70.9806 125.962 70.5943 125.81 70.3536 125.506C70.1256 125.189 69.942 124.803 69.8026 124.347C69.3213 124.79 68.7893 125.164 68.2066 125.468C67.624 125.759 66.997 125.905 66.3256 125.905C65.857 125.905 65.4136 125.816 64.9956 125.639C64.5903 125.449 64.261 125.177 64.0076 124.822C63.7543 124.467 63.6276 124.037 63.6276 123.53C63.6276 122.998 63.7606 122.542 64.0266 122.162C64.3053 121.769 64.6536 121.44 65.0716 121.174C65.5023 120.895 65.9583 120.674 66.4396 120.509C66.9336 120.332 67.396 120.199 67.8266 120.11C68.118 120.047 68.4156 119.99 68.7196 119.939C69.0236 119.888 69.3213 119.838 69.6126 119.787C69.6126 119.432 69.5936 119.021 69.5556 118.552C69.5303 118.083 69.4353 117.697 69.2706 117.393C69.106 117.102 68.8843 116.842 68.6056 116.614C68.327 116.386 68.0166 116.272 67.6746 116.272C67.092 116.272 66.636 116.424 66.3066 116.728C65.9773 117.032 65.743 117.463 65.6036 118.02C65.591 118.083 65.5783 118.153 65.5656 118.229C65.5656 118.292 65.5593 118.356 65.5466 118.419C65.534 118.495 65.4833 118.565 65.3946 118.628C65.3186 118.679 65.2363 118.704 65.1476 118.704C64.907 118.704 64.6853 118.647 64.4826 118.533C64.2926 118.419 64.1976 118.229 64.1976 117.963C64.1976 117.811 64.223 117.678 64.2736 117.564C64.4383 117.171 64.7043 116.848 65.0716 116.595C65.439 116.329 65.8443 116.126 66.2876 115.987C66.7436 115.848 67.168 115.778 67.5606 115.778C68.2446 115.778 68.8653 115.905 69.4226 116.158C69.98 116.411 70.4233 116.785 70.7526 117.279C71.0946 117.76 71.2656 118.368 71.2656 119.103C71.2656 119.926 71.2593 120.756 71.2466 121.592C71.2466 122.428 71.272 123.264 71.3226 124.1C71.3353 124.379 71.3923 124.626 71.4936 124.841C71.595 125.044 71.804 125.145 72.1206 125.145C72.2853 125.145 72.4563 125.107 72.6336 125.031C72.8236 124.942 72.944 124.898 72.9946 124.898C73.0326 124.898 73.0516 124.93 73.0516 124.993ZM79.1686 125.753C79.1686 125.816 79.1496 125.88 79.1116 125.943C79.0863 125.994 79.0356 126.019 78.9596 126.019C78.5669 126.019 78.1679 126.013 77.7626 126C77.3573 125.975 76.9519 125.962 76.5466 125.962H75.8816C75.6156 125.962 75.3496 125.975 75.0836 126C74.8176 126.013 74.5516 126.019 74.2856 126.019C74.2349 126.019 74.1969 126 74.1716 125.962C74.1589 125.911 74.1526 125.867 74.1526 125.829C74.1526 125.791 74.1526 125.753 74.1526 125.715C74.1526 125.677 74.1589 125.639 74.1716 125.601C74.1969 125.55 74.2666 125.525 74.3806 125.525C74.5073 125.512 74.6339 125.512 74.7606 125.525C74.8999 125.525 74.9886 125.525 75.0266 125.525C75.2039 125.525 75.3623 125.487 75.5016 125.411C75.6409 125.322 75.7106 125.177 75.7106 124.974C75.7106 123.999 75.7169 123.03 75.7296 122.067C75.7423 121.092 75.7486 120.123 75.7486 119.16C75.7486 118.172 75.7423 117.184 75.7296 116.196C75.7296 115.195 75.7296 114.201 75.7296 113.213C75.7296 113.124 75.7233 113.029 75.7106 112.928C75.6979 112.814 75.6599 112.725 75.5966 112.662C75.5459 112.599 75.4953 112.567 75.4446 112.567C75.3939 112.554 75.3306 112.548 75.2546 112.548C75.0266 112.548 74.7986 112.586 74.5706 112.662C74.3553 112.738 74.1399 112.776 73.9246 112.776C73.7853 112.776 73.7156 112.694 73.7156 112.529C73.7156 112.428 73.7916 112.358 73.9436 112.32C74.1083 112.282 74.2349 112.257 74.3236 112.244C74.7669 112.143 75.2483 112.029 75.7676 111.902C76.2869 111.775 76.7556 111.63 77.1736 111.465C77.1989 111.465 77.2243 111.459 77.2496 111.446C77.2749 111.433 77.2939 111.427 77.3066 111.427C77.3826 111.427 77.4269 111.452 77.4396 111.503C77.4649 111.554 77.4776 111.611 77.4776 111.674C77.4776 112.029 77.4713 112.383 77.4586 112.738C77.4586 113.08 77.4586 113.428 77.4586 113.783V119.103C77.4586 120.078 77.4649 121.06 77.4776 122.048C77.4903 123.023 77.4966 123.999 77.4966 124.974C77.4966 125.177 77.5789 125.322 77.7436 125.411C77.9209 125.487 78.0919 125.525 78.2566 125.525C78.3959 125.525 78.5289 125.519 78.6556 125.506C78.7823 125.493 78.9089 125.487 79.0356 125.487C79.0989 125.487 79.1369 125.525 79.1496 125.601C79.1623 125.664 79.1686 125.715 79.1686 125.753ZM87.504 119.331C87.4913 118.812 87.447 118.318 87.371 117.849C87.295 117.368 87.1113 116.975 86.82 116.671C86.5286 116.354 86.0536 116.196 85.395 116.196C84.7996 116.196 84.312 116.361 83.932 116.69C83.5646 117.007 83.2796 117.412 83.077 117.906C82.8743 118.387 82.7223 118.881 82.621 119.388C82.9376 119.401 83.248 119.413 83.552 119.426C83.856 119.426 84.16 119.426 84.464 119.426C84.9706 119.426 85.4773 119.42 85.984 119.407C86.4906 119.382 86.9973 119.356 87.504 119.331ZM89.689 123.682C89.689 123.745 89.6763 123.783 89.651 123.796C89.613 123.923 89.518 124.075 89.366 124.252C89.2266 124.429 89.0683 124.6 88.891 124.765C88.7136 124.917 88.568 125.031 88.454 125.107C88.036 125.398 87.561 125.633 87.029 125.81C86.5096 125.987 85.9903 126.076 85.471 126.076C85.0403 126.076 84.559 126.006 84.027 125.867C83.5076 125.728 83.0643 125.538 82.697 125.297C81.9876 124.828 81.4683 124.214 81.139 123.454C80.8096 122.694 80.645 121.902 80.645 121.079C80.645 120.142 80.8286 119.274 81.196 118.476C81.5633 117.678 82.1523 117.032 82.963 116.538C83.3303 116.323 83.742 116.145 84.198 116.006C84.654 115.854 85.091 115.778 85.509 115.778C86.2563 115.778 86.915 115.93 87.485 116.234C88.055 116.538 88.4983 116.969 88.815 117.526C89.1443 118.071 89.309 118.723 89.309 119.483C89.309 119.698 89.2583 119.838 89.157 119.901C89.0683 119.964 88.929 119.996 88.739 119.996C88.4856 119.996 88.2323 119.99 87.979 119.977C87.7256 119.964 87.4723 119.952 87.219 119.939C86.8643 119.914 86.5096 119.901 86.155 119.901C85.813 119.901 85.4646 119.901 85.11 119.901C84.6793 119.901 84.2486 119.901 83.818 119.901C83.3873 119.901 82.9566 119.914 82.526 119.939C82.5133 120.142 82.5006 120.338 82.488 120.528C82.4753 120.718 82.469 120.914 82.469 121.117C82.469 121.586 82.526 122.073 82.64 122.58C82.754 123.074 82.9376 123.536 83.191 123.967C83.4443 124.385 83.7673 124.727 84.16 124.993C84.5526 125.246 85.0276 125.373 85.585 125.373C86.155 125.373 86.6996 125.284 87.219 125.107C87.7383 124.93 88.2133 124.645 88.644 124.252C88.758 124.138 88.8593 124.018 88.948 123.891C89.0493 123.752 89.157 123.631 89.271 123.53C89.3343 123.467 89.404 123.435 89.48 123.435C89.5433 123.435 89.594 123.46 89.632 123.511C89.67 123.562 89.689 123.619 89.689 123.682ZM98.3705 117.545C98.3705 117.672 98.3198 117.792 98.2185 117.906C98.1298 118.007 98.0158 118.058 97.8765 118.058C97.6865 118.058 97.5471 117.995 97.4585 117.868C97.3825 117.741 97.3128 117.596 97.2495 117.431C97.1988 117.266 97.1165 117.121 97.0025 116.994C96.8885 116.867 96.6985 116.804 96.4325 116.804C96.3818 116.804 96.3311 116.804 96.2805 116.804C96.2425 116.804 96.1981 116.81 96.1475 116.823C95.9321 116.861 95.6978 116.994 95.4445 117.222C95.1911 117.45 94.9441 117.722 94.7035 118.039C94.4755 118.343 94.2855 118.647 94.1335 118.951C93.9815 119.255 93.8991 119.508 93.8865 119.711C93.8738 119.914 93.8675 120.116 93.8675 120.319C93.8675 120.509 93.8675 120.699 93.8675 120.889C93.8675 121.573 93.8675 122.257 93.8675 122.941C93.8801 123.625 93.8865 124.303 93.8865 124.974C93.8865 125.164 93.9625 125.303 94.1145 125.392C94.2791 125.468 94.4438 125.506 94.6085 125.506C94.7351 125.506 94.8618 125.5 94.9885 125.487C95.1151 125.474 95.2418 125.468 95.3685 125.468C95.4318 125.468 95.4761 125.5 95.5015 125.563C95.5268 125.614 95.5395 125.664 95.5395 125.715C95.5395 125.918 95.4381 126.019 95.2355 126.019C94.8555 126.019 94.4755 126.013 94.0955 126C93.7155 125.975 93.3355 125.962 92.9555 125.962C92.5628 125.962 92.1638 125.975 91.7585 126C91.3658 126.025 90.9668 126.038 90.5615 126.038C90.5108 126.038 90.4728 126 90.4475 125.924C90.4348 125.848 90.4285 125.785 90.4285 125.734C90.4285 125.607 90.4791 125.538 90.5805 125.525C90.7198 125.5 90.8655 125.493 91.0175 125.506C91.1695 125.519 91.3088 125.525 91.4355 125.525C91.6255 125.525 91.7775 125.487 91.8915 125.411C92.0181 125.322 92.0878 125.177 92.1005 124.974C92.1258 124.569 92.1385 124.157 92.1385 123.739C92.1511 123.321 92.1575 122.903 92.1575 122.485V120.642C92.1448 120.097 92.1385 119.559 92.1385 119.027C92.1511 118.482 92.1321 117.944 92.0815 117.412C92.0688 117.159 91.9991 116.981 91.8725 116.88C91.7458 116.766 91.5558 116.709 91.3025 116.709C91.2011 116.709 91.0935 116.722 90.9795 116.747C90.8781 116.76 90.7705 116.766 90.6565 116.766C90.5551 116.766 90.5045 116.69 90.5045 116.538C90.5045 116.449 90.5488 116.386 90.6375 116.348C90.7641 116.31 90.8971 116.285 91.0365 116.272C91.1758 116.247 91.3088 116.228 91.4355 116.215C91.7775 116.152 92.1195 116.088 92.4615 116.025C92.8035 115.962 93.1455 115.886 93.4875 115.797C93.6015 115.835 93.6838 115.905 93.7345 116.006C93.7598 116.057 93.7788 116.196 93.7915 116.424C93.8041 116.652 93.8105 116.918 93.8105 117.222C93.8105 117.513 93.8105 117.792 93.8105 118.058C93.8105 118.311 93.8105 118.489 93.8105 118.59C94.0891 118.147 94.4058 117.703 94.7605 117.26C95.1151 116.817 95.5205 116.449 95.9765 116.158C96.4325 115.867 96.9455 115.721 97.5155 115.721C97.8195 115.721 98.0158 115.816 98.1045 116.006C98.1931 116.196 98.2501 116.418 98.2755 116.671C98.3008 116.81 98.3198 116.956 98.3325 117.108C98.3578 117.26 98.3705 117.406 98.3705 117.545ZM104.571 125.715C104.571 125.778 104.552 125.842 104.514 125.905C104.476 125.956 104.425 125.981 104.362 125.981C104.007 125.981 103.653 125.975 103.298 125.962C102.956 125.937 102.601 125.924 102.234 125.924H101.721C101.341 125.924 100.961 125.937 100.581 125.962C100.214 125.975 99.8462 125.981 99.4789 125.981C99.4282 125.981 99.3902 125.949 99.3649 125.886C99.3522 125.823 99.3459 125.772 99.3459 125.734C99.3459 125.671 99.3522 125.626 99.3649 125.601C99.3775 125.563 99.4155 125.538 99.4789 125.525C99.5422 125.5 99.6119 125.493 99.6879 125.506C99.7765 125.506 99.8589 125.506 99.9349 125.506C100.024 125.506 100.106 125.512 100.182 125.525C100.258 125.525 100.34 125.525 100.429 125.525C100.606 125.525 100.765 125.487 100.904 125.411C101.056 125.322 101.132 125.177 101.132 124.974V117.374C101.132 117.159 101.094 116.994 101.018 116.88C100.942 116.753 100.784 116.69 100.543 116.69C100.366 116.69 100.182 116.703 99.9919 116.728C99.8145 116.741 99.6372 116.76 99.4599 116.785C99.3585 116.785 99.3079 116.728 99.3079 116.614C99.3079 116.487 99.3585 116.405 99.4599 116.367C99.6119 116.316 99.7702 116.285 99.9349 116.272C100.112 116.247 100.277 116.221 100.429 116.196C100.784 116.133 101.138 116.063 101.493 115.987C101.848 115.911 102.196 115.829 102.538 115.74C102.576 115.727 102.627 115.721 102.69 115.721C102.829 115.721 102.899 115.797 102.899 115.949C102.899 117.444 102.893 118.945 102.88 120.452C102.88 121.959 102.88 123.467 102.88 124.974C102.88 125.177 102.969 125.322 103.146 125.411C103.336 125.487 103.513 125.525 103.678 125.525C103.805 125.525 103.931 125.519 104.058 125.506C104.197 125.493 104.33 125.487 104.457 125.487C104.508 125.487 104.539 125.519 104.552 125.582C104.565 125.645 104.571 125.69 104.571 125.715ZM103.032 112.567C103.032 112.884 102.918 113.156 102.69 113.384C102.462 113.599 102.19 113.707 101.873 113.707C101.556 113.707 101.284 113.599 101.056 113.384C100.828 113.156 100.714 112.884 100.714 112.567C100.714 112.25 100.828 111.984 101.056 111.769C101.284 111.541 101.556 111.427 101.873 111.427C102.19 111.427 102.462 111.541 102.69 111.769C102.918 111.984 103.032 112.25 103.032 112.567ZM111.957 123.777C111.906 123.207 111.875 122.637 111.862 122.067C111.862 121.484 111.856 120.902 111.843 120.319H111.577C111.184 120.319 110.747 120.382 110.266 120.509C109.797 120.623 109.348 120.8 108.917 121.041C108.486 121.282 108.132 121.586 107.853 121.953C107.587 122.308 107.454 122.719 107.454 123.188C107.454 123.796 107.625 124.258 107.967 124.575C108.309 124.879 108.771 125.031 109.354 125.031C109.633 125.031 109.937 124.968 110.266 124.841C110.595 124.702 110.912 124.537 111.216 124.347C111.52 124.157 111.767 123.967 111.957 123.777ZM115.282 124.993C115.282 125.044 115.276 125.082 115.263 125.107C115.136 125.386 114.921 125.601 114.617 125.753C114.326 125.892 114.034 125.962 113.743 125.962C113.211 125.962 112.825 125.81 112.584 125.506C112.356 125.189 112.172 124.803 112.033 124.347C111.552 124.79 111.02 125.164 110.437 125.468C109.854 125.759 109.227 125.905 108.556 125.905C108.087 125.905 107.644 125.816 107.226 125.639C106.821 125.449 106.491 125.177 106.238 124.822C105.985 124.467 105.858 124.037 105.858 123.53C105.858 122.998 105.991 122.542 106.257 122.162C106.536 121.769 106.884 121.44 107.302 121.174C107.733 120.895 108.189 120.674 108.67 120.509C109.164 120.332 109.626 120.199 110.057 120.11C110.348 120.047 110.646 119.99 110.95 119.939C111.254 119.888 111.552 119.838 111.843 119.787C111.843 119.432 111.824 119.021 111.786 118.552C111.761 118.083 111.666 117.697 111.501 117.393C111.336 117.102 111.115 116.842 110.836 116.614C110.557 116.386 110.247 116.272 109.905 116.272C109.322 116.272 108.866 116.424 108.537 116.728C108.208 117.032 107.973 117.463 107.834 118.02C107.821 118.083 107.809 118.153 107.796 118.229C107.796 118.292 107.79 118.356 107.777 118.419C107.764 118.495 107.714 118.565 107.625 118.628C107.549 118.679 107.467 118.704 107.378 118.704C107.137 118.704 106.916 118.647 106.713 118.533C106.523 118.419 106.428 118.229 106.428 117.963C106.428 117.811 106.453 117.678 106.504 117.564C106.669 117.171 106.935 116.848 107.302 116.595C107.669 116.329 108.075 116.126 108.518 115.987C108.974 115.848 109.398 115.778 109.791 115.778C110.475 115.778 111.096 115.905 111.653 116.158C112.21 116.411 112.654 116.785 112.983 117.279C113.325 117.76 113.496 118.368 113.496 119.103C113.496 119.926 113.49 120.756 113.477 121.592C113.477 122.428 113.502 123.264 113.553 124.1C113.566 124.379 113.623 124.626 113.724 124.841C113.825 125.044 114.034 125.145 114.351 125.145C114.516 125.145 114.687 125.107 114.864 125.031C115.054 124.942 115.174 124.898 115.225 124.898C115.263 124.898 115.282 124.93 115.282 124.993ZM131.602 115.987C131.602 116.114 131.558 116.183 131.469 116.196C131.38 116.209 131.26 116.215 131.108 116.215C130.969 116.215 130.823 116.247 130.671 116.31C130.532 116.373 130.405 116.519 130.291 116.747C129.67 117.963 129.1 119.204 128.581 120.471C128.062 121.738 127.492 122.979 126.871 124.195C126.504 124.93 126.136 125.664 125.769 126.399C125.414 127.146 125.015 127.868 124.572 128.565C124.331 128.945 124.046 129.249 123.717 129.477C123.388 129.705 122.995 129.819 122.539 129.819C122.159 129.819 121.811 129.737 121.494 129.572C121.19 129.407 121.038 129.11 121.038 128.679C121.038 128.4 121.139 128.166 121.342 127.976C121.557 127.786 121.798 127.691 122.064 127.691C122.178 127.691 122.292 127.71 122.406 127.748C122.33 127.9 122.292 128.046 122.292 128.185C122.292 128.375 122.362 128.521 122.501 128.622C122.653 128.736 122.811 128.793 122.976 128.793C123.229 128.793 123.457 128.717 123.66 128.565C123.875 128.426 124.046 128.255 124.173 128.052C124.401 127.71 124.591 127.33 124.743 126.912C124.908 126.494 124.99 126.082 124.99 125.677C124.99 125.5 124.977 125.322 124.952 125.145C124.927 124.968 124.889 124.797 124.838 124.632C124.762 124.366 124.673 124.106 124.572 123.853C124.471 123.587 124.369 123.327 124.268 123.074C124.103 122.669 123.939 122.27 123.774 121.877C123.622 121.484 123.457 121.092 123.28 120.699C123.039 120.129 122.799 119.559 122.558 118.989C122.33 118.406 122.077 117.843 121.798 117.298C121.76 117.235 121.722 117.171 121.684 117.108C121.659 117.045 121.621 116.981 121.57 116.918C121.507 116.817 121.424 116.734 121.323 116.671C121.234 116.595 121.12 116.557 120.981 116.557C120.892 116.557 120.797 116.563 120.696 116.576C120.595 116.589 120.493 116.595 120.392 116.595C120.329 116.595 120.278 116.57 120.24 116.519C120.202 116.456 120.183 116.399 120.183 116.348C120.183 116.247 120.24 116.183 120.354 116.158C120.481 116.12 120.607 116.095 120.734 116.082C120.873 116.069 121.006 116.057 121.133 116.044C121.412 115.993 121.69 115.943 121.969 115.892C122.248 115.841 122.526 115.803 122.805 115.778C122.843 115.765 122.881 115.759 122.919 115.759C122.957 115.759 122.995 115.759 123.033 115.759C123.16 115.759 123.242 115.797 123.28 115.873C123.331 115.949 123.381 116.038 123.432 116.139C123.723 116.772 123.989 117.425 124.23 118.096C124.471 118.755 124.711 119.413 124.952 120.072C125.205 120.693 125.446 121.32 125.674 121.953C125.902 122.586 126.136 123.22 126.377 123.853C126.466 123.688 126.592 123.416 126.757 123.036C126.934 122.643 127.131 122.2 127.346 121.706C127.574 121.199 127.802 120.674 128.03 120.129C128.258 119.584 128.467 119.065 128.657 118.571C128.86 118.077 129.018 117.653 129.132 117.298C129.259 116.931 129.322 116.677 129.322 116.538C129.322 116.373 129.24 116.278 129.075 116.253C128.91 116.215 128.727 116.202 128.524 116.215C128.321 116.228 128.169 116.234 128.068 116.234C128.017 116.234 127.973 116.209 127.935 116.158C127.897 116.107 127.878 116.057 127.878 116.006C127.878 115.879 127.941 115.816 128.068 115.816C128.207 115.803 128.315 115.797 128.391 115.797C128.606 115.797 128.828 115.803 129.056 115.816C129.284 115.816 129.506 115.816 129.721 115.816C130.012 115.816 130.297 115.81 130.576 115.797C130.867 115.784 131.152 115.778 131.431 115.778C131.494 115.778 131.539 115.803 131.564 115.854C131.589 115.892 131.602 115.936 131.602 115.987ZM149.571 122.447C149.571 122.523 149.565 122.599 149.552 122.675C149.54 122.751 149.514 122.821 149.476 122.884C149.312 123.277 149.052 123.663 148.697 124.043C148.355 124.41 148.001 124.714 147.633 124.955C147.063 125.335 146.455 125.601 145.809 125.753C145.176 125.905 144.524 125.981 143.852 125.981C142.497 125.981 141.325 125.696 140.337 125.126C139.362 124.543 138.615 123.739 138.095 122.713C137.576 121.687 137.316 120.509 137.316 119.179C137.316 118.191 137.462 117.266 137.753 116.405C138.045 115.544 138.469 114.79 139.026 114.144C139.584 113.485 140.268 112.972 141.078 112.605C141.889 112.225 142.814 112.035 143.852 112.035C144.359 112.035 144.84 112.117 145.296 112.282C145.765 112.434 146.234 112.592 146.702 112.757C146.968 112.846 147.241 112.915 147.519 112.966C147.811 113.017 148.096 113.055 148.374 113.08C148.387 113.359 148.406 113.637 148.431 113.916C148.457 114.182 148.488 114.454 148.526 114.733C148.564 114.986 148.609 115.246 148.659 115.512C148.723 115.765 148.754 116.025 148.754 116.291C148.754 116.494 148.71 116.658 148.621 116.785C148.545 116.912 148.393 116.975 148.165 116.975C148.039 116.975 147.944 116.905 147.88 116.766C147.83 116.639 147.785 116.506 147.747 116.367C147.722 116.215 147.69 116.076 147.652 115.949C147.551 115.531 147.38 115.094 147.139 114.638C146.899 114.169 146.607 113.796 146.265 113.517C146.113 113.378 145.885 113.238 145.581 113.099C145.29 112.96 144.986 112.846 144.669 112.757C144.365 112.668 144.106 112.624 143.89 112.624C143.51 112.624 143.124 112.694 142.731 112.833C142.339 112.972 141.99 113.156 141.686 113.384C141.116 113.827 140.66 114.366 140.318 114.999C139.976 115.62 139.729 116.285 139.577 116.994C139.438 117.703 139.368 118.406 139.368 119.103C139.368 119.863 139.457 120.61 139.634 121.345C139.812 122.067 140.09 122.719 140.47 123.302C140.85 123.885 141.344 124.353 141.952 124.708C142.56 125.05 143.301 125.221 144.175 125.221C144.543 125.221 144.954 125.17 145.41 125.069C145.866 124.955 146.259 124.828 146.588 124.689C146.981 124.524 147.342 124.315 147.671 124.062C148.001 123.796 148.298 123.498 148.564 123.169C148.59 123.144 148.64 123.068 148.716 122.941C148.805 122.814 148.894 122.688 148.982 122.561C149.071 122.434 149.128 122.358 149.153 122.333C149.217 122.257 149.286 122.219 149.362 122.219C149.502 122.219 149.571 122.295 149.571 122.447ZM156.841 123.777C156.79 123.207 156.759 122.637 156.746 122.067C156.746 121.484 156.74 120.902 156.727 120.319H156.461C156.068 120.319 155.631 120.382 155.15 120.509C154.681 120.623 154.232 120.8 153.801 121.041C153.37 121.282 153.016 121.586 152.737 121.953C152.471 122.308 152.338 122.719 152.338 123.188C152.338 123.796 152.509 124.258 152.851 124.575C153.193 124.879 153.655 125.031 154.238 125.031C154.517 125.031 154.821 124.968 155.15 124.841C155.479 124.702 155.796 124.537 156.1 124.347C156.404 124.157 156.651 123.967 156.841 123.777ZM160.166 124.993C160.166 125.044 160.16 125.082 160.147 125.107C160.02 125.386 159.805 125.601 159.501 125.753C159.21 125.892 158.918 125.962 158.627 125.962C158.095 125.962 157.709 125.81 157.468 125.506C157.24 125.189 157.056 124.803 156.917 124.347C156.436 124.79 155.904 125.164 155.321 125.468C154.738 125.759 154.111 125.905 153.44 125.905C152.971 125.905 152.528 125.816 152.11 125.639C151.705 125.449 151.375 125.177 151.122 124.822C150.869 124.467 150.742 124.037 150.742 123.53C150.742 122.998 150.875 122.542 151.141 122.162C151.42 121.769 151.768 121.44 152.186 121.174C152.617 120.895 153.073 120.674 153.554 120.509C154.048 120.332 154.51 120.199 154.941 120.11C155.232 120.047 155.53 119.99 155.834 119.939C156.138 119.888 156.436 119.838 156.727 119.787C156.727 119.432 156.708 119.021 156.67 118.552C156.645 118.083 156.55 117.697 156.385 117.393C156.22 117.102 155.999 116.842 155.72 116.614C155.441 116.386 155.131 116.272 154.789 116.272C154.206 116.272 153.75 116.424 153.421 116.728C153.092 117.032 152.857 117.463 152.718 118.02C152.705 118.083 152.693 118.153 152.68 118.229C152.68 118.292 152.674 118.356 152.661 118.419C152.648 118.495 152.598 118.565 152.509 118.628C152.433 118.679 152.351 118.704 152.262 118.704C152.021 118.704 151.8 118.647 151.597 118.533C151.407 118.419 151.312 118.229 151.312 117.963C151.312 117.811 151.337 117.678 151.388 117.564C151.553 117.171 151.819 116.848 152.186 116.595C152.553 116.329 152.959 116.126 153.402 115.987C153.858 115.848 154.282 115.778 154.675 115.778C155.359 115.778 155.98 115.905 156.537 116.158C157.094 116.411 157.538 116.785 157.867 117.279C158.209 117.76 158.38 118.368 158.38 119.103C158.38 119.926 158.374 120.756 158.361 121.592C158.361 122.428 158.386 123.264 158.437 124.1C158.45 124.379 158.507 124.626 158.608 124.841C158.709 125.044 158.918 125.145 159.235 125.145C159.4 125.145 159.571 125.107 159.748 125.031C159.938 124.942 160.058 124.898 160.109 124.898C160.147 124.898 160.166 124.93 160.166 124.993ZM168.164 123.283C168.164 123.853 168.037 124.322 167.784 124.689C167.531 125.044 167.201 125.316 166.796 125.506C166.391 125.696 165.947 125.829 165.466 125.905C164.985 125.981 164.516 126.019 164.06 126.019C163.642 126.019 163.224 125.975 162.806 125.886C162.401 125.797 161.989 125.734 161.571 125.696C161.482 125.354 161.394 125.012 161.305 124.67C161.229 124.328 161.14 123.992 161.039 123.663C161.026 123.625 160.995 123.536 160.944 123.397C160.906 123.258 160.887 123.182 160.887 123.169C160.887 123.068 160.919 122.998 160.982 122.96C161.045 122.909 161.121 122.884 161.21 122.884C161.299 122.884 161.362 122.916 161.4 122.979C161.476 123.068 161.539 123.188 161.59 123.34C161.653 123.492 161.71 123.625 161.761 123.739C161.862 123.942 161.951 124.1 162.027 124.214C162.103 124.315 162.223 124.448 162.388 124.613C162.882 125.132 163.496 125.392 164.231 125.392C164.636 125.392 165.004 125.348 165.333 125.259C165.675 125.17 165.947 125.006 166.15 124.765C166.353 124.512 166.454 124.151 166.454 123.682C166.454 123.277 166.327 122.941 166.074 122.675C165.821 122.396 165.491 122.149 165.086 121.934C164.693 121.719 164.275 121.51 163.832 121.307C163.389 121.104 162.964 120.883 162.559 120.642C162.166 120.389 161.843 120.085 161.59 119.73C161.337 119.375 161.21 118.945 161.21 118.438C161.21 117.817 161.368 117.311 161.685 116.918C162.014 116.525 162.432 116.234 162.939 116.044C163.446 115.841 163.971 115.74 164.516 115.74C164.871 115.74 165.187 115.784 165.466 115.873C165.757 115.962 166.061 116.063 166.378 116.177C166.479 116.215 166.581 116.24 166.682 116.253C166.783 116.266 166.885 116.272 166.986 116.272C167.049 116.272 167.106 116.272 167.157 116.272C167.208 116.272 167.258 116.266 167.309 116.253C167.347 116.481 167.379 116.715 167.404 116.956C167.442 117.184 167.474 117.418 167.499 117.659C167.512 117.748 167.524 117.855 167.537 117.982C167.562 118.096 167.575 118.204 167.575 118.305C167.575 118.394 167.556 118.489 167.518 118.59C167.48 118.679 167.404 118.723 167.29 118.723C167.201 118.723 167.125 118.717 167.062 118.704C167.011 118.679 166.967 118.622 166.929 118.533C166.866 118.406 166.809 118.273 166.758 118.134C166.72 117.982 166.676 117.843 166.625 117.716C166.46 117.273 166.175 116.918 165.77 116.652C165.365 116.373 164.928 116.234 164.459 116.234C163.864 116.234 163.414 116.411 163.11 116.766C162.806 117.108 162.654 117.57 162.654 118.153C162.654 118.356 162.705 118.552 162.806 118.742C162.92 118.932 163.047 119.097 163.186 119.236C163.452 119.489 163.762 119.686 164.117 119.825C164.484 119.964 164.833 120.104 165.162 120.243C165.593 120.433 166.036 120.661 166.492 120.927C166.961 121.193 167.353 121.516 167.67 121.896C167.999 122.276 168.164 122.738 168.164 123.283ZM175.655 123.777C175.605 123.207 175.573 122.637 175.56 122.067C175.56 121.484 175.554 120.902 175.541 120.319H175.275C174.883 120.319 174.446 120.382 173.964 120.509C173.496 120.623 173.046 120.8 172.615 121.041C172.185 121.282 171.83 121.586 171.551 121.953C171.285 122.308 171.152 122.719 171.152 123.188C171.152 123.796 171.323 124.258 171.665 124.575C172.007 124.879 172.47 125.031 173.052 125.031C173.331 125.031 173.635 124.968 173.964 124.841C174.294 124.702 174.61 124.537 174.914 124.347C175.218 124.157 175.465 123.967 175.655 123.777ZM178.98 124.993C178.98 125.044 178.974 125.082 178.961 125.107C178.835 125.386 178.619 125.601 178.315 125.753C178.024 125.892 177.733 125.962 177.441 125.962C176.909 125.962 176.523 125.81 176.282 125.506C176.054 125.189 175.871 124.803 175.731 124.347C175.25 124.79 174.718 125.164 174.135 125.468C173.553 125.759 172.926 125.905 172.254 125.905C171.786 125.905 171.342 125.816 170.924 125.639C170.519 125.449 170.19 125.177 169.936 124.822C169.683 124.467 169.556 124.037 169.556 123.53C169.556 122.998 169.689 122.542 169.955 122.162C170.234 121.769 170.582 121.44 171 121.174C171.431 120.895 171.887 120.674 172.368 120.509C172.862 120.332 173.325 120.199 173.755 120.11C174.047 120.047 174.344 119.99 174.648 119.939C174.952 119.888 175.25 119.838 175.541 119.787C175.541 119.432 175.522 119.021 175.484 118.552C175.459 118.083 175.364 117.697 175.199 117.393C175.035 117.102 174.813 116.842 174.534 116.614C174.256 116.386 173.945 116.272 173.603 116.272C173.021 116.272 172.565 116.424 172.235 116.728C171.906 117.032 171.672 117.463 171.532 118.02C171.52 118.083 171.507 118.153 171.494 118.229C171.494 118.292 171.488 118.356 171.475 118.419C171.463 118.495 171.412 118.565 171.323 118.628C171.247 118.679 171.165 118.704 171.076 118.704C170.836 118.704 170.614 118.647 170.411 118.533C170.221 118.419 170.126 118.229 170.126 117.963C170.126 117.811 170.152 117.678 170.202 117.564C170.367 117.171 170.633 116.848 171 116.595C171.368 116.329 171.773 116.126 172.216 115.987C172.672 115.848 173.097 115.778 173.489 115.778C174.173 115.778 174.794 115.905 175.351 116.158C175.909 116.411 176.352 116.785 176.681 117.279C177.023 117.76 177.194 118.368 177.194 119.103C177.194 119.926 177.188 120.756 177.175 121.592C177.175 122.428 177.201 123.264 177.251 124.1C177.264 124.379 177.321 124.626 177.422 124.841C177.524 125.044 177.733 125.145 178.049 125.145C178.214 125.145 178.385 125.107 178.562 125.031C178.752 124.942 178.873 124.898 178.923 124.898C178.961 124.898 178.98 124.93 178.98 124.993ZM191.728 119.027C191.728 118.596 191.64 118.191 191.462 117.811C191.285 117.431 191.032 117.121 190.702 116.88C190.373 116.639 189.974 116.519 189.505 116.519C188.897 116.519 188.397 116.665 188.004 116.956C187.624 117.247 187.32 117.627 187.092 118.096C186.877 118.552 186.725 119.046 186.636 119.578C186.56 120.11 186.522 120.617 186.522 121.098C186.522 121.529 186.56 121.991 186.636 122.485C186.712 122.979 186.845 123.441 187.035 123.872C187.238 124.303 187.517 124.657 187.871 124.936C188.226 125.202 188.676 125.335 189.22 125.335C189.676 125.335 190.094 125.196 190.474 124.917C190.854 124.626 191.158 124.265 191.386 123.834C191.614 123.403 191.728 122.979 191.728 122.561V119.027ZM195.262 125.24C195.262 125.303 195.231 125.367 195.167 125.43C195.104 125.493 195.047 125.544 194.996 125.582C194.832 125.709 194.591 125.816 194.274 125.905C193.97 125.994 193.711 126.038 193.495 126.038C193.166 126.038 192.894 125.943 192.678 125.753C192.463 125.563 192.286 125.329 192.146 125.05C192.02 124.771 191.906 124.499 191.804 124.233C191.526 124.676 191.146 125.075 190.664 125.43C190.183 125.772 189.67 125.943 189.125 125.943C188.758 125.943 188.378 125.918 187.985 125.867C187.605 125.804 187.251 125.671 186.921 125.468C186.199 125.012 185.648 124.398 185.268 123.625C184.901 122.84 184.717 122.035 184.717 121.212C184.717 120.224 184.895 119.337 185.249 118.552C185.604 117.754 186.13 117.127 186.826 116.671C187.536 116.202 188.41 115.968 189.448 115.968C189.676 115.968 189.93 116.012 190.208 116.101C190.487 116.19 190.759 116.304 191.025 116.443C191.304 116.57 191.526 116.703 191.69 116.842V113.156C191.69 112.751 191.583 112.523 191.367 112.472C191.165 112.409 190.892 112.377 190.55 112.377C190.436 112.377 190.322 112.383 190.208 112.396C190.094 112.396 189.98 112.396 189.866 112.396C189.816 112.396 189.765 112.377 189.714 112.339C189.676 112.301 189.657 112.257 189.657 112.206C189.657 112.117 189.689 112.06 189.752 112.035C189.778 112.01 189.803 111.997 189.828 111.997C189.866 111.997 189.904 111.991 189.942 111.978C190.208 111.927 190.474 111.889 190.74 111.864C191.019 111.826 191.298 111.782 191.576 111.731C191.855 111.68 192.127 111.63 192.393 111.579C192.659 111.516 192.925 111.446 193.191 111.37C193.204 111.37 193.223 111.364 193.248 111.351C193.286 111.338 193.312 111.332 193.324 111.332C193.388 111.332 193.426 111.357 193.438 111.408C193.451 111.459 193.457 111.509 193.457 111.56C193.457 113.131 193.451 114.695 193.438 116.253C193.426 117.811 193.419 119.375 193.419 120.946V123.777C193.419 123.992 193.445 124.214 193.495 124.442C193.546 124.67 193.641 124.86 193.78 125.012C193.932 125.164 194.141 125.24 194.407 125.24C194.534 125.24 194.654 125.215 194.768 125.164C194.882 125.113 195.003 125.088 195.129 125.088C195.218 125.088 195.262 125.139 195.262 125.24ZM203.137 119.331C203.124 118.812 203.08 118.318 203.004 117.849C202.928 117.368 202.744 116.975 202.453 116.671C202.161 116.354 201.686 116.196 201.028 116.196C200.432 116.196 199.945 116.361 199.565 116.69C199.197 117.007 198.912 117.412 198.71 117.906C198.507 118.387 198.355 118.881 198.254 119.388C198.57 119.401 198.881 119.413 199.185 119.426C199.489 119.426 199.793 119.426 200.097 119.426C200.603 119.426 201.11 119.42 201.617 119.407C202.123 119.382 202.63 119.356 203.137 119.331ZM205.322 123.682C205.322 123.745 205.309 123.783 205.284 123.796C205.246 123.923 205.151 124.075 204.999 124.252C204.859 124.429 204.701 124.6 204.524 124.765C204.346 124.917 204.201 125.031 204.087 125.107C203.669 125.398 203.194 125.633 202.662 125.81C202.142 125.987 201.623 126.076 201.104 126.076C200.673 126.076 200.192 126.006 199.66 125.867C199.14 125.728 198.697 125.538 198.33 125.297C197.62 124.828 197.101 124.214 196.772 123.454C196.442 122.694 196.278 121.902 196.278 121.079C196.278 120.142 196.461 119.274 196.829 118.476C197.196 117.678 197.785 117.032 198.596 116.538C198.963 116.323 199.375 116.145 199.831 116.006C200.287 115.854 200.724 115.778 201.142 115.778C201.889 115.778 202.548 115.93 203.118 116.234C203.688 116.538 204.131 116.969 204.448 117.526C204.777 118.071 204.942 118.723 204.942 119.483C204.942 119.698 204.891 119.838 204.79 119.901C204.701 119.964 204.562 119.996 204.372 119.996C204.118 119.996 203.865 119.99 203.612 119.977C203.358 119.964 203.105 119.952 202.852 119.939C202.497 119.914 202.142 119.901 201.788 119.901C201.446 119.901 201.097 119.901 200.743 119.901C200.312 119.901 199.881 119.901 199.451 119.901C199.02 119.901 198.589 119.914 198.159 119.939C198.146 120.142 198.133 120.338 198.121 120.528C198.108 120.718 198.102 120.914 198.102 121.117C198.102 121.586 198.159 122.073 198.273 122.58C198.387 123.074 198.57 123.536 198.824 123.967C199.077 124.385 199.4 124.727 199.793 124.993C200.185 125.246 200.66 125.373 201.218 125.373C201.788 125.373 202.332 125.284 202.852 125.107C203.371 124.93 203.846 124.645 204.277 124.252C204.391 124.138 204.492 124.018 204.581 123.891C204.682 123.752 204.79 123.631 204.904 123.53C204.967 123.467 205.037 123.435 205.113 123.435C205.176 123.435 205.227 123.46 205.265 123.511C205.303 123.562 205.322 123.619 205.322 123.682ZM221.052 122.428C221.052 123.15 220.888 123.752 220.558 124.233C220.229 124.714 219.792 125.101 219.247 125.392C218.715 125.671 218.133 125.873 217.499 126C216.879 126.114 216.271 126.171 215.675 126.171C214.903 126.171 214.174 126.051 213.49 125.81C213.212 125.709 212.939 125.601 212.673 125.487C212.407 125.36 212.129 125.259 211.837 125.183C211.787 124.778 211.698 124.334 211.571 123.853C211.457 123.372 211.4 122.935 211.4 122.542C211.4 122.365 211.426 122.232 211.476 122.143C211.54 122.042 211.673 121.991 211.875 121.991C212.053 121.991 212.167 122.035 212.217 122.124C212.268 122.2 212.306 122.308 212.331 122.447C212.382 122.624 212.426 122.802 212.464 122.979C212.502 123.144 212.547 123.315 212.597 123.492C212.851 124.252 213.224 124.784 213.718 125.088C214.225 125.392 214.871 125.544 215.656 125.544C216.302 125.544 216.879 125.455 217.385 125.278C217.905 125.088 218.31 124.784 218.601 124.366C218.905 123.948 219.057 123.391 219.057 122.694C219.057 122.149 218.874 121.662 218.506 121.231C218.139 120.788 217.734 120.439 217.29 120.186C217.189 120.123 217.081 120.066 216.967 120.015C216.853 119.964 216.739 119.914 216.625 119.863C216.233 119.66 215.834 119.458 215.428 119.255C215.036 119.052 214.637 118.856 214.231 118.666C213.839 118.463 213.433 118.21 213.015 117.906C212.61 117.589 212.262 117.228 211.97 116.823C211.692 116.418 211.552 115.974 211.552 115.493C211.552 114.682 211.768 114.011 212.198 113.479C212.629 112.947 213.18 112.548 213.851 112.282C214.523 112.016 215.219 111.883 215.941 111.883C216.461 111.883 216.923 111.946 217.328 112.073C217.746 112.2 218.158 112.333 218.563 112.472C218.969 112.599 219.412 112.687 219.893 112.738C219.931 113.118 219.969 113.498 220.007 113.878C220.045 114.258 220.102 114.638 220.178 115.018C220.191 115.069 220.197 115.119 220.197 115.17C220.21 115.221 220.216 115.271 220.216 115.322C220.216 115.525 220.147 115.658 220.007 115.721C219.881 115.772 219.735 115.797 219.57 115.797C219.406 115.797 219.317 115.765 219.304 115.702C219.292 115.639 219.273 115.544 219.247 115.417C219.083 114.404 218.734 113.644 218.202 113.137C217.67 112.618 216.872 112.358 215.808 112.358C215.023 112.358 214.409 112.567 213.965 112.985C213.535 113.403 213.319 114.011 213.319 114.809C213.319 115.341 213.459 115.791 213.737 116.158C214.016 116.525 214.383 116.848 214.839 117.127C215.308 117.393 215.815 117.646 216.359 117.887C216.917 118.128 217.468 118.375 218.012 118.628C218.557 118.881 219.057 119.179 219.513 119.521C219.982 119.85 220.356 120.249 220.634 120.718C220.913 121.187 221.052 121.757 221.052 122.428ZM233.512 125.487C233.512 125.639 233.398 125.753 233.17 125.829C232.954 125.905 232.714 125.956 232.448 125.981C232.182 126.006 231.992 126.019 231.878 126.019C231.447 126.019 231.105 125.848 230.852 125.506C230.598 125.164 230.408 124.809 230.282 124.442C229.851 124.987 229.313 125.392 228.667 125.658C228.021 125.924 227.349 126.057 226.653 126.057C225.513 126.057 224.721 125.766 224.278 125.183C223.847 124.588 223.632 123.752 223.632 122.675C223.632 121.725 223.632 120.775 223.632 119.825C223.644 118.862 223.657 117.906 223.67 116.956C223.67 116.576 223.486 116.386 223.119 116.386C223.017 116.386 222.916 116.392 222.815 116.405C222.713 116.418 222.612 116.424 222.511 116.424C222.473 116.424 222.441 116.405 222.416 116.367C222.403 116.316 222.397 116.278 222.397 116.253C222.397 116.114 222.46 116.038 222.587 116.025C223.03 115.974 223.473 115.943 223.917 115.93C224.373 115.905 224.822 115.867 225.266 115.816C225.367 115.917 225.418 116.044 225.418 116.196C225.418 116.513 225.411 116.836 225.399 117.165C225.386 117.494 225.38 117.824 225.38 118.153C225.367 118.926 225.354 119.705 225.342 120.49C225.342 121.263 225.342 122.042 225.342 122.827C225.342 123.068 225.348 123.327 225.361 123.606C225.373 123.872 225.424 124.119 225.513 124.347C225.652 124.702 225.912 124.955 226.292 125.107C226.684 125.246 227.058 125.316 227.413 125.316C227.805 125.316 228.198 125.246 228.591 125.107C228.996 124.955 229.338 124.74 229.617 124.461C229.908 124.17 230.073 123.809 230.111 123.378C230.136 123.163 230.149 122.947 230.149 122.732C230.161 122.504 230.168 122.282 230.168 122.067L230.149 116.899C230.149 116.734 230.092 116.614 229.978 116.538C229.876 116.462 229.756 116.424 229.617 116.424C229.49 116.424 229.363 116.43 229.237 116.443C229.123 116.456 229.002 116.462 228.876 116.462C228.762 116.462 228.705 116.399 228.705 116.272C228.705 116.145 228.762 116.076 228.876 116.063C229.028 116.038 229.186 116.025 229.351 116.025C229.515 116.012 229.68 116 229.845 115.987L231.156 115.854C231.244 115.841 231.333 115.829 231.422 115.816C231.523 115.803 231.618 115.797 231.707 115.797C231.77 115.797 231.814 115.835 231.84 115.911C231.865 115.974 231.878 116.025 231.878 116.063C231.84 118.812 231.821 121.554 231.821 124.29C231.821 124.607 231.89 124.866 232.03 125.069C232.182 125.272 232.429 125.373 232.771 125.373C232.872 125.373 232.961 125.36 233.037 125.335C233.125 125.31 233.214 125.297 233.303 125.297C233.442 125.297 233.512 125.36 233.512 125.487ZM242.801 120.642C242.801 120.186 242.757 119.724 242.668 119.255C242.58 118.786 242.434 118.362 242.231 117.982C242.029 117.589 241.744 117.273 241.376 117.032C241.022 116.791 240.566 116.671 240.008 116.671C239.768 116.671 239.476 116.741 239.134 116.88C238.805 117.007 238.552 117.159 238.374 117.336C238.134 117.564 237.95 117.811 237.823 118.077C237.697 118.343 237.627 118.647 237.614 118.989L237.595 122.181C237.595 122.536 237.595 122.897 237.595 123.264C237.595 123.619 237.595 123.98 237.595 124.347C237.595 124.436 237.602 124.556 237.614 124.708C237.64 124.847 237.665 124.949 237.69 125.012C237.792 125.215 237.988 125.348 238.279 125.411C238.583 125.462 238.83 125.487 239.02 125.487C239.704 125.487 240.287 125.348 240.768 125.069C241.25 124.79 241.636 124.417 241.927 123.948C242.231 123.479 242.453 122.96 242.592 122.39C242.732 121.807 242.801 121.225 242.801 120.642ZM244.701 120.661C244.701 121.674 244.473 122.586 244.017 123.397C243.574 124.208 242.953 124.847 242.155 125.316C241.37 125.772 240.458 126 239.419 126C238.963 126 238.507 125.937 238.051 125.81C237.595 125.683 237.165 125.62 236.759 125.62C236.671 125.62 236.576 125.626 236.474 125.639C236.373 125.652 236.272 125.658 236.17 125.658C235.955 125.658 235.847 125.544 235.847 125.316C235.847 125.24 235.86 125.151 235.885 125.05C235.911 124.809 235.923 124.569 235.923 124.328C235.923 124.087 235.93 123.847 235.942 123.606C235.942 123.327 235.942 123.055 235.942 122.789C235.955 122.51 235.961 122.232 235.961 121.953C235.961 120.433 235.949 118.913 235.923 117.393C235.911 115.873 235.904 114.353 235.904 112.833C235.904 112.656 235.847 112.542 235.733 112.491C235.619 112.44 235.486 112.415 235.334 112.415C235.17 112.415 234.999 112.428 234.821 112.453C234.644 112.466 234.467 112.472 234.289 112.472C234.239 112.472 234.182 112.453 234.118 112.415C234.068 112.364 234.042 112.307 234.042 112.244C234.042 112.168 234.08 112.117 234.156 112.092C234.232 112.054 234.296 112.029 234.346 112.016C234.79 111.927 235.233 111.851 235.676 111.788C236.132 111.725 236.576 111.636 237.006 111.522C237.082 111.497 237.158 111.471 237.234 111.446C237.323 111.408 237.405 111.389 237.481 111.389C237.57 111.389 237.608 111.446 237.595 111.56C237.595 111.674 237.595 111.763 237.595 111.826V117.127C238.001 116.785 238.469 116.5 239.001 116.272C239.546 116.044 240.084 115.93 240.616 115.93C241.516 115.93 242.269 116.152 242.877 116.595C243.485 117.038 243.941 117.621 244.245 118.343C244.549 119.052 244.701 119.825 244.701 120.661ZM252.175 123.777C252.124 123.207 252.093 122.637 252.08 122.067C252.08 121.484 252.074 120.902 252.061 120.319H251.795C251.402 120.319 250.965 120.382 250.484 120.509C250.015 120.623 249.566 120.8 249.135 121.041C248.704 121.282 248.35 121.586 248.071 121.953C247.805 122.308 247.672 122.719 247.672 123.188C247.672 123.796 247.843 124.258 248.185 124.575C248.527 124.879 248.989 125.031 249.572 125.031C249.851 125.031 250.155 124.968 250.484 124.841C250.813 124.702 251.13 124.537 251.434 124.347C251.738 124.157 251.985 123.967 252.175 123.777ZM255.5 124.993C255.5 125.044 255.494 125.082 255.481 125.107C255.354 125.386 255.139 125.601 254.835 125.753C254.544 125.892 254.252 125.962 253.961 125.962C253.429 125.962 253.043 125.81 252.802 125.506C252.574 125.189 252.39 124.803 252.251 124.347C251.77 124.79 251.238 125.164 250.655 125.468C250.072 125.759 249.445 125.905 248.774 125.905C248.305 125.905 247.862 125.816 247.444 125.639C247.039 125.449 246.709 125.177 246.456 124.822C246.203 124.467 246.076 124.037 246.076 123.53C246.076 122.998 246.209 122.542 246.475 122.162C246.754 121.769 247.102 121.44 247.52 121.174C247.951 120.895 248.407 120.674 248.888 120.509C249.382 120.332 249.844 120.199 250.275 120.11C250.566 120.047 250.864 119.99 251.168 119.939C251.472 119.888 251.77 119.838 252.061 119.787C252.061 119.432 252.042 119.021 252.004 118.552C251.979 118.083 251.884 117.697 251.719 117.393C251.554 117.102 251.333 116.842 251.054 116.614C250.775 116.386 250.465 116.272 250.123 116.272C249.54 116.272 249.084 116.424 248.755 116.728C248.426 117.032 248.191 117.463 248.052 118.02C248.039 118.083 248.027 118.153 248.014 118.229C248.014 118.292 248.008 118.356 247.995 118.419C247.982 118.495 247.932 118.565 247.843 118.628C247.767 118.679 247.685 118.704 247.596 118.704C247.355 118.704 247.134 118.647 246.931 118.533C246.741 118.419 246.646 118.229 246.646 117.963C246.646 117.811 246.671 117.678 246.722 117.564C246.887 117.171 247.153 116.848 247.52 116.595C247.887 116.329 248.293 116.126 248.736 115.987C249.192 115.848 249.616 115.778 250.009 115.778C250.693 115.778 251.314 115.905 251.871 116.158C252.428 116.411 252.872 116.785 253.201 117.279C253.543 117.76 253.714 118.368 253.714 119.103C253.714 119.926 253.708 120.756 253.695 121.592C253.695 122.428 253.72 123.264 253.771 124.1C253.784 124.379 253.841 124.626 253.942 124.841C254.043 125.044 254.252 125.145 254.569 125.145C254.734 125.145 254.905 125.107 255.082 125.031C255.272 124.942 255.392 124.898 255.443 124.898C255.481 124.898 255.5 124.93 255.5 124.993ZM263.498 123.283C263.498 123.853 263.371 124.322 263.118 124.689C262.865 125.044 262.535 125.316 262.13 125.506C261.725 125.696 261.281 125.829 260.8 125.905C260.319 125.981 259.85 126.019 259.394 126.019C258.976 126.019 258.558 125.975 258.14 125.886C257.735 125.797 257.323 125.734 256.905 125.696C256.816 125.354 256.728 125.012 256.639 124.67C256.563 124.328 256.474 123.992 256.373 123.663C256.36 123.625 256.329 123.536 256.278 123.397C256.24 123.258 256.221 123.182 256.221 123.169C256.221 123.068 256.253 122.998 256.316 122.96C256.379 122.909 256.455 122.884 256.544 122.884C256.633 122.884 256.696 122.916 256.734 122.979C256.81 123.068 256.873 123.188 256.924 123.34C256.987 123.492 257.044 123.625 257.095 123.739C257.196 123.942 257.285 124.1 257.361 124.214C257.437 124.315 257.557 124.448 257.722 124.613C258.216 125.132 258.83 125.392 259.565 125.392C259.97 125.392 260.338 125.348 260.667 125.259C261.009 125.17 261.281 125.006 261.484 124.765C261.687 124.512 261.788 124.151 261.788 123.682C261.788 123.277 261.661 122.941 261.408 122.675C261.155 122.396 260.825 122.149 260.42 121.934C260.027 121.719 259.609 121.51 259.166 121.307C258.723 121.104 258.298 120.883 257.893 120.642C257.5 120.389 257.177 120.085 256.924 119.73C256.671 119.375 256.544 118.945 256.544 118.438C256.544 117.817 256.702 117.311 257.019 116.918C257.348 116.525 257.766 116.234 258.273 116.044C258.78 115.841 259.305 115.74 259.85 115.74C260.205 115.74 260.521 115.784 260.8 115.873C261.091 115.962 261.395 116.063 261.712 116.177C261.813 116.215 261.915 116.24 262.016 116.253C262.117 116.266 262.219 116.272 262.32 116.272C262.383 116.272 262.44 116.272 262.491 116.272C262.542 116.272 262.592 116.266 262.643 116.253C262.681 116.481 262.713 116.715 262.738 116.956C262.776 117.184 262.808 117.418 262.833 117.659C262.846 117.748 262.858 117.855 262.871 117.982C262.896 118.096 262.909 118.204 262.909 118.305C262.909 118.394 262.89 118.489 262.852 118.59C262.814 118.679 262.738 118.723 262.624 118.723C262.535 118.723 262.459 118.717 262.396 118.704C262.345 118.679 262.301 118.622 262.263 118.533C262.2 118.406 262.143 118.273 262.092 118.134C262.054 117.982 262.01 117.843 261.959 117.716C261.794 117.273 261.509 116.918 261.104 116.652C260.699 116.373 260.262 116.234 259.793 116.234C259.198 116.234 258.748 116.411 258.444 116.766C258.14 117.108 257.988 117.57 257.988 118.153C257.988 118.356 258.039 118.552 258.14 118.742C258.254 118.932 258.381 119.097 258.52 119.236C258.786 119.489 259.096 119.686 259.451 119.825C259.818 119.964 260.167 120.104 260.496 120.243C260.927 120.433 261.37 120.661 261.826 120.927C262.295 121.193 262.687 121.516 263.004 121.896C263.333 122.276 263.498 122.738 263.498 123.283ZM271.027 125.126C271.027 125.24 270.939 125.354 270.761 125.468C270.597 125.582 270.394 125.683 270.153 125.772C269.913 125.861 269.678 125.93 269.45 125.981C269.235 126.032 269.077 126.057 268.975 126.057C268.317 126.057 267.804 125.975 267.436 125.81C267.082 125.645 266.828 125.373 266.676 124.993C266.537 124.613 266.467 124.1 266.467 123.454C266.467 122.403 266.467 121.351 266.467 120.3C266.48 119.236 266.493 118.178 266.505 117.127H265.137C265.049 117.127 264.973 117.152 264.909 117.203C264.859 117.241 264.802 117.26 264.738 117.26C264.675 117.26 264.643 117.216 264.643 117.127C264.643 117.076 264.675 116.975 264.738 116.823C264.814 116.671 264.865 116.57 264.89 116.519C264.928 116.532 264.985 116.538 265.061 116.538H266.543L266.562 114.125C266.854 113.935 267.12 113.726 267.36 113.498C267.601 113.257 267.842 113.017 268.082 112.776C268.108 112.751 268.133 112.732 268.158 112.719C268.184 112.694 268.209 112.681 268.234 112.681C268.348 112.681 268.405 112.725 268.405 112.814L268.291 116.519C268.697 116.519 269.096 116.513 269.488 116.5C269.894 116.487 270.293 116.481 270.685 116.481C270.85 116.481 270.932 116.576 270.932 116.766C270.932 117.007 270.825 117.127 270.609 117.127H268.291C268.291 118.09 268.285 119.059 268.272 120.034C268.272 120.997 268.272 121.966 268.272 122.941V124.404C268.272 124.721 268.405 124.942 268.671 125.069C268.937 125.183 269.197 125.24 269.45 125.24C269.805 125.24 270.153 125.183 270.495 125.069C270.533 125.044 270.59 125.018 270.666 124.993C270.742 124.968 270.799 124.955 270.837 124.955C270.964 124.955 271.027 125.012 271.027 125.126ZM278.059 123.777C278.008 123.207 277.976 122.637 277.964 122.067C277.964 121.484 277.957 120.902 277.945 120.319H277.679C277.286 120.319 276.849 120.382 276.368 120.509C275.899 120.623 275.449 120.8 275.019 121.041C274.588 121.282 274.233 121.586 273.955 121.953C273.689 122.308 273.556 122.719 273.556 123.188C273.556 123.796 273.727 124.258 274.069 124.575C274.411 124.879 274.873 125.031 275.456 125.031C275.734 125.031 276.038 124.968 276.368 124.841C276.697 124.702 277.014 124.537 277.318 124.347C277.622 124.157 277.869 123.967 278.059 123.777ZM281.384 124.993C281.384 125.044 281.377 125.082 281.365 125.107C281.238 125.386 281.023 125.601 280.719 125.753C280.427 125.892 280.136 125.962 279.845 125.962C279.313 125.962 278.926 125.81 278.686 125.506C278.458 125.189 278.274 124.803 278.135 124.347C277.653 124.79 277.121 125.164 276.539 125.468C275.956 125.759 275.329 125.905 274.658 125.905C274.189 125.905 273.746 125.816 273.328 125.639C272.922 125.449 272.593 125.177 272.34 124.822C272.086 124.467 271.96 124.037 271.96 123.53C271.96 122.998 272.093 122.542 272.359 122.162C272.637 121.769 272.986 121.44 273.404 121.174C273.834 120.895 274.29 120.674 274.772 120.509C275.266 120.332 275.728 120.199 276.159 120.11C276.45 120.047 276.748 119.99 277.052 119.939C277.356 119.888 277.653 119.838 277.945 119.787C277.945 119.432 277.926 119.021 277.888 118.552C277.862 118.083 277.767 117.697 277.603 117.393C277.438 117.102 277.216 116.842 276.938 116.614C276.659 116.386 276.349 116.272 276.007 116.272C275.424 116.272 274.968 116.424 274.639 116.728C274.309 117.032 274.075 117.463 273.936 118.02C273.923 118.083 273.91 118.153 273.898 118.229C273.898 118.292 273.891 118.356 273.879 118.419C273.866 118.495 273.815 118.565 273.727 118.628C273.651 118.679 273.568 118.704 273.48 118.704C273.239 118.704 273.017 118.647 272.815 118.533C272.625 118.419 272.53 118.229 272.53 117.963C272.53 117.811 272.555 117.678 272.606 117.564C272.77 117.171 273.036 116.848 273.404 116.595C273.771 116.329 274.176 116.126 274.62 115.987C275.076 115.848 275.5 115.778 275.893 115.778C276.577 115.778 277.197 115.905 277.755 116.158C278.312 116.411 278.755 116.785 279.085 117.279C279.427 117.76 279.598 118.368 279.598 119.103C279.598 119.926 279.591 120.756 279.579 121.592C279.579 122.428 279.604 123.264 279.655 124.1C279.667 124.379 279.724 124.626 279.826 124.841C279.927 125.044 280.136 125.145 280.453 125.145C280.617 125.145 280.788 125.107 280.966 125.031C281.156 124.942 281.276 124.898 281.327 124.898C281.365 124.898 281.384 124.93 281.384 124.993ZM289.382 123.283C289.382 123.853 289.255 124.322 289.002 124.689C288.748 125.044 288.419 125.316 288.014 125.506C287.608 125.696 287.165 125.829 286.684 125.905C286.202 125.981 285.734 126.019 285.278 126.019C284.86 126.019 284.442 125.975 284.024 125.886C283.618 125.797 283.207 125.734 282.789 125.696C282.7 125.354 282.611 125.012 282.523 124.67C282.447 124.328 282.358 123.992 282.257 123.663C282.244 123.625 282.212 123.536 282.162 123.397C282.124 123.258 282.105 123.182 282.105 123.169C282.105 123.068 282.136 122.998 282.2 122.96C282.263 122.909 282.339 122.884 282.428 122.884C282.516 122.884 282.58 122.916 282.618 122.979C282.694 123.068 282.757 123.188 282.808 123.34C282.871 123.492 282.928 123.625 282.979 123.739C283.08 123.942 283.169 124.1 283.245 124.214C283.321 124.315 283.441 124.448 283.606 124.613C284.1 125.132 284.714 125.392 285.449 125.392C285.854 125.392 286.221 125.348 286.551 125.259C286.893 125.17 287.165 125.006 287.368 124.765C287.57 124.512 287.672 124.151 287.672 123.682C287.672 123.277 287.545 122.941 287.292 122.675C287.038 122.396 286.709 122.149 286.304 121.934C285.911 121.719 285.493 121.51 285.05 121.307C284.606 121.104 284.182 120.883 283.777 120.642C283.384 120.389 283.061 120.085 282.808 119.73C282.554 119.375 282.428 118.945 282.428 118.438C282.428 117.817 282.586 117.311 282.903 116.918C283.232 116.525 283.65 116.234 284.157 116.044C284.663 115.841 285.189 115.74 285.734 115.74C286.088 115.74 286.405 115.784 286.684 115.873C286.975 115.962 287.279 116.063 287.596 116.177C287.697 116.215 287.798 116.24 287.9 116.253C288.001 116.266 288.102 116.272 288.204 116.272C288.267 116.272 288.324 116.272 288.375 116.272C288.425 116.272 288.476 116.266 288.527 116.253C288.565 116.481 288.596 116.715 288.622 116.956C288.66 117.184 288.691 117.418 288.717 117.659C288.729 117.748 288.742 117.855 288.755 117.982C288.78 118.096 288.793 118.204 288.793 118.305C288.793 118.394 288.774 118.489 288.736 118.59C288.698 118.679 288.622 118.723 288.508 118.723C288.419 118.723 288.343 118.717 288.28 118.704C288.229 118.679 288.185 118.622 288.147 118.533C288.083 118.406 288.026 118.273 287.976 118.134C287.938 117.982 287.893 117.843 287.843 117.716C287.678 117.273 287.393 116.918 286.988 116.652C286.582 116.373 286.145 116.234 285.677 116.234C285.081 116.234 284.632 116.411 284.328 116.766C284.024 117.108 283.872 117.57 283.872 118.153C283.872 118.356 283.922 118.552 284.024 118.742C284.138 118.932 284.264 119.097 284.404 119.236C284.67 119.489 284.98 119.686 285.335 119.825C285.702 119.964 286.05 120.104 286.38 120.243C286.81 120.433 287.254 120.661 287.71 120.927C288.178 121.193 288.571 121.516 288.888 121.896C289.217 122.276 289.382 122.738 289.382 123.283Z" fill="black"/>
<path d="M65.4062 83.0078L64.8594 98.4766C63.6094 98.9193 62.2552 99.3229 60.7969 99.6875C59.3646 100.026 57.9062 100.312 56.4219 100.547C54.9375 100.807 53.4661 101.003 52.0078 101.133C50.5755 101.263 49.2344 101.328 47.9844 101.328C44 101.328 40.4062 100.651 37.2031 99.2969C34.026 97.9427 31.3177 96.0156 29.0781 93.5156C26.8646 90.9896 25.1589 87.9297 23.9609 84.3359C22.7891 80.7422 22.2031 76.6927 22.2031 72.1875C22.2031 67.5781 22.8281 63.4115 24.0781 59.6875C25.3281 55.9635 27.112 52.7865 29.4297 50.1562C31.7474 47.5 34.5469 45.4688 37.8281 44.0625C41.1354 42.6302 44.8203 41.9141 48.8828 41.9141C50.0286 41.9141 51.2396 41.9792 52.5156 42.1094C53.7917 42.2135 55.0807 42.3828 56.3828 42.6172C57.7109 42.8255 59.013 43.0859 60.2891 43.3984C61.5911 43.7109 62.8411 44.0625 64.0391 44.4531L64.5078 58.7109H61.7734C61.5391 55.8724 61.0182 53.5677 60.2109 51.7969C59.4297 50 58.4401 48.6068 57.2422 47.6172C56.0443 46.6276 54.6901 45.9505 53.1797 45.5859C51.6693 45.2214 50.0677 45.0391 48.375 45.0391C46.6562 45.0391 45.0286 45.1953 43.4922 45.5078C41.9557 45.8203 40.5234 46.3672 39.1953 47.1484C37.8932 47.9297 36.7083 48.9714 35.6406 50.2734C34.599 51.5755 33.7135 53.2292 32.9844 55.2344C32.2552 57.2396 31.6823 59.6224 31.2656 62.3828C30.875 65.1172 30.6797 68.3073 30.6797 71.9531C30.6797 75.5729 30.875 78.737 31.2656 81.4453C31.6562 84.1276 32.2031 86.4453 32.9062 88.3984C33.6354 90.3516 34.5078 91.9661 35.5234 93.2422C36.5651 94.4922 37.7109 95.4948 38.9609 96.25C40.237 96.9792 41.6172 97.487 43.1016 97.7734C44.5859 98.0599 46.1484 98.2031 47.7891 98.2031C49.7682 98.2031 51.5911 97.9818 53.2578 97.5391C54.9505 97.0703 56.4349 96.263 57.7109 95.1172C59.013 93.9714 60.0807 92.4219 60.9141 90.4688C61.7734 88.5156 62.3594 86.0286 62.6719 83.0078H65.4062ZM74.2344 83.6719C74.2344 81.224 74.612 78.9062 75.3672 76.7188C76.1484 74.5312 77.2812 72.6172 78.7656 70.9766C80.25 69.3359 82.0599 68.0469 84.1953 67.1094C86.3568 66.1458 88.8047 65.6641 91.5391 65.6641C94.2474 65.6641 96.6432 66.1328 98.7266 67.0703C100.81 67.9818 102.555 69.2318 103.961 70.8203C105.367 72.4089 106.422 74.2578 107.125 76.3672C107.854 78.4766 108.219 80.7161 108.219 83.0859C108.219 85.5339 107.828 87.8516 107.047 90.0391C106.292 92.2266 105.172 94.1406 103.688 95.7812C102.203 97.4219 100.38 98.724 98.2188 99.6875C96.0833 100.625 93.6484 101.094 90.9141 101.094C88.2057 101.094 85.8099 100.638 83.7266 99.7266C81.6432 98.7891 79.8984 97.526 78.4922 95.9375C77.0859 94.349 76.0182 92.5 75.2891 90.3906C74.5859 88.2812 74.2344 86.0417 74.2344 83.6719ZM81.9688 83.5156C81.9688 86.3542 82.1641 88.7109 82.5547 90.5859C82.9453 92.4609 83.5182 93.9583 84.2734 95.0781C85.0286 96.1979 85.9792 96.9922 87.125 97.4609C88.2708 97.9036 89.612 98.125 91.1484 98.125C92.6589 98.125 94 97.8906 95.1719 97.4219C96.3438 96.9531 97.3203 96.1589 98.1016 95.0391C98.8828 93.8932 99.4688 92.3698 99.8594 90.4688C100.276 88.5417 100.484 86.1328 100.484 83.2422C100.484 80.4036 100.289 78.0469 99.8984 76.1719C99.5078 74.2969 98.9349 72.7995 98.1797 71.6797C97.4245 70.5599 96.4609 69.7786 95.2891 69.3359C94.1432 68.8672 92.8151 68.6328 91.3047 68.6328C89.7682 68.6328 88.4141 68.8672 87.2422 69.3359C86.0964 69.8047 85.1328 70.612 84.3516 71.7578C83.5703 72.8776 82.9714 74.401 82.5547 76.3281C82.1641 78.2292 81.9688 80.625 81.9688 83.5156ZM126.383 96.875H132.242V100H113.492V96.875H119.352V46.3672H113.492V43.2422H126.383V96.875ZM149.234 96.875H154.508V100H136.344V96.875H142.203V69.8438H136.344V66.7188H149.234V72.3828H149.391C150.432 70.2214 151.839 68.5677 153.609 67.4219C155.38 66.25 157.659 65.6641 160.445 65.6641C163.336 65.6641 165.589 66.2891 167.203 67.5391C168.818 68.7891 169.885 70.7161 170.406 73.3203H170.562C171.604 70.7943 173.049 68.8932 174.898 67.6172C176.773 66.3151 179.156 65.6641 182.047 65.6641C185.562 65.6641 188.167 66.5885 189.859 68.4375C191.578 70.2604 192.438 72.8776 192.438 76.2891V96.875H198.102V100H180.133V96.875H185.406V75.1953C185.406 73.138 184.938 71.6276 184 70.6641C183.062 69.6745 181.734 69.1797 180.016 69.1797C178.766 69.1797 177.581 69.4661 176.461 70.0391C175.367 70.5859 174.391 71.4453 173.531 72.6172C172.698 73.7891 172.034 75.2865 171.539 77.1094C171.07 78.9323 170.836 81.0938 170.836 83.5938V96.875H176.109V100H158.531V96.875H163.805V75.1562C163.805 73.125 163.336 71.6276 162.398 70.6641C161.461 69.6745 160.133 69.1797 158.414 69.1797C157.164 69.1797 155.979 69.4661 154.859 70.0391C153.766 70.5859 152.789 71.4453 151.93 72.6172C151.096 73.7891 150.432 75.2865 149.938 77.1094C149.469 78.9323 149.234 81.0938 149.234 83.5938V96.875ZM234.078 89.4141C233.245 93.1901 231.63 96.0807 229.234 98.0859C226.839 100.091 223.727 101.094 219.898 101.094C217.268 101.094 214.924 100.638 212.867 99.7266C210.81 98.7891 209.065 97.526 207.633 95.9375C206.201 94.349 205.107 92.5 204.352 90.3906C203.596 88.2552 203.219 85.9896 203.219 83.5938C203.219 81.1458 203.609 78.8281 204.391 76.6406C205.172 74.4531 206.279 72.5521 207.711 70.9375C209.169 69.3229 210.901 68.0469 212.906 67.1094C214.938 66.1458 217.203 65.6641 219.703 65.6641C221.995 65.6641 224.052 66.0677 225.875 66.875C227.698 67.6823 229.247 68.8151 230.523 70.2734C231.799 71.7057 232.776 73.4245 233.453 75.4297C234.156 77.4349 234.534 79.6354 234.586 82.0312H211.031C211.005 82.474 210.992 82.7734 210.992 82.9297C210.992 83.0599 210.992 83.138 210.992 83.1641C210.992 86.237 211.214 88.737 211.656 90.6641C212.125 92.5911 212.763 94.1016 213.57 95.1953C214.404 96.263 215.38 96.9922 216.5 97.3828C217.646 97.7734 218.909 97.9688 220.289 97.9688C221.565 97.9688 222.763 97.7995 223.883 97.4609C225.029 97.1224 226.057 96.5885 226.969 95.8594C227.88 95.1042 228.674 94.1406 229.352 92.9688C230.055 91.7708 230.615 90.3385 231.031 88.6719C231.552 88.724 232.073 88.8151 232.594 88.9453C233.115 89.0755 233.609 89.2318 234.078 89.4141ZM226.695 78.9844C226.617 76.8229 226.383 75.0781 225.992 73.75C225.628 72.3958 225.133 71.3411 224.508 70.5859C223.883 69.8307 223.141 69.3229 222.281 69.0625C221.448 68.776 220.523 68.6328 219.508 68.6328C218.44 68.6328 217.438 68.7891 216.5 69.1016C215.589 69.4141 214.768 69.9609 214.039 70.7422C213.31 71.5234 212.698 72.5781 212.203 73.9062C211.734 75.2344 211.409 76.9271 211.227 78.9844H226.695ZM253.531 96.875H258.805V100H240.641V96.875H246.5V69.8438H240.641V66.7188H253.531V72.3828H253.688C254.755 70.2214 256.188 68.5677 257.984 67.4219C259.781 66.25 262.099 65.6641 264.938 65.6641C268.505 65.6641 271.161 66.5885 272.906 68.4375C274.651 70.2604 275.523 72.8776 275.523 76.2891V96.875H281.188V100H263.219V96.875H268.492V75.1953C268.492 73.138 268.01 71.6276 267.047 70.6641C266.083 69.6745 264.729 69.1797 262.984 69.1797C261.656 69.1797 260.419 69.4661 259.273 70.0391C258.128 70.5859 257.125 71.4453 256.266 72.6172C255.432 73.7891 254.768 75.2865 254.273 77.1094C253.779 78.9323 253.531 81.0938 253.531 83.5938V96.875ZM319.312 100C318.219 100.208 317.203 100.339 316.266 100.391C315.328 100.443 314.586 100.469 314.039 100.469C312.659 100.469 311.513 100.352 310.602 100.117C309.716 99.9089 309.013 99.5964 308.492 99.1797C307.971 98.763 307.594 98.2552 307.359 97.6562C307.125 97.0573 306.982 96.3932 306.93 95.6641H306.734C306.005 96.6797 305.224 97.5391 304.391 98.2422C303.557 98.9453 302.685 99.5052 301.773 99.9219C300.862 100.339 299.924 100.638 298.961 100.82C298.023 101.003 297.073 101.094 296.109 101.094C294.521 101.094 293.102 100.872 291.852 100.43C290.602 100.013 289.547 99.4141 288.688 98.6328C287.828 97.8516 287.177 96.9271 286.734 95.8594C286.292 94.7656 286.07 93.5677 286.07 92.2656C286.07 88.6458 287.841 85.8984 291.383 84.0234C294.951 82.1224 300.081 81.1068 306.773 80.9766C306.799 79.8047 306.812 78.75 306.812 77.8125C306.839 76.875 306.852 75.9505 306.852 75.0391C306.852 72.6693 306.357 71.0156 305.367 70.0781C304.404 69.1146 302.867 68.6328 300.758 68.6328C299.352 68.6328 298.089 68.7891 296.969 69.1016C295.875 69.4141 294.977 69.8307 294.273 70.3516C294.898 70.9505 295.354 71.5885 295.641 72.2656C295.953 72.9167 296.109 73.5677 296.109 74.2188C296.109 75.3125 295.758 76.224 295.055 76.9531C294.352 77.6823 293.388 78.0469 292.164 78.0469C291.643 78.0469 291.135 77.9688 290.641 77.8125C290.146 77.6562 289.716 77.4089 289.352 77.0703C288.987 76.7318 288.688 76.3151 288.453 75.8203C288.245 75.2995 288.141 74.7005 288.141 74.0234C288.141 72.9557 288.427 71.9271 289 70.9375C289.599 69.9219 290.471 69.0234 291.617 68.2422C292.789 67.4609 294.234 66.8359 295.953 66.3672C297.698 65.8984 299.729 65.6641 302.047 65.6641C303.922 65.6641 305.576 65.8464 307.008 66.2109C308.466 66.5755 309.69 67.1875 310.68 68.0469C311.695 68.8802 312.451 70 312.945 71.4062C313.466 72.8125 313.727 74.5573 313.727 76.6406C313.727 77.1615 313.714 78.0208 313.688 79.2188C313.688 80.3906 313.674 81.6927 313.648 83.125C313.622 84.5573 313.596 86.0156 313.57 87.5C313.57 88.9583 313.57 90.2474 313.57 91.3672C313.57 92.513 313.596 93.4766 313.648 94.2578C313.701 95.013 313.831 95.625 314.039 96.0938C314.247 96.5365 314.56 96.862 314.977 97.0703C315.393 97.2526 315.979 97.3438 316.734 97.3438C317.385 97.3438 318.245 97.2656 319.312 97.1094V100ZM306.773 83.9062C303.935 83.9844 301.643 84.2057 299.898 84.5703C298.154 84.9089 296.799 85.4036 295.836 86.0547C294.872 86.6797 294.221 87.4479 293.883 88.3594C293.544 89.2708 293.375 90.3125 293.375 91.4844C293.375 93.5156 293.792 95.0391 294.625 96.0547C295.484 97.0443 296.656 97.5391 298.141 97.5391C298.948 97.5391 299.846 97.3698 300.836 97.0312C301.852 96.6927 302.802 96.1458 303.688 95.3906C304.573 94.6094 305.302 93.5938 305.875 92.3438C306.474 91.0938 306.773 89.5443 306.773 87.6953V83.9062Z" fill="black"/>
</svg>
